<svg width="83" height="41" viewBox="0 0 83 41" fill="none" xmlns="http://www.w3.org/2000/svg">
<path d="M81.3086 2.28152C80.3727 2.28152 79.615 3.04387 79.615 3.983C79.615 4.24485 79.6755 4.49233 79.7811 4.71441L67.7289 11.2662C67.4287 10.7712 66.8876 10.4409 66.2696 10.4409C65.3249 10.4409 64.5584 11.2109 64.5584 12.16C64.5584 12.7931 64.9004 13.3444 65.4074 13.6427L62.4842 19.3151C62.2654 19.2145 62.0235 19.157 61.7661 19.157C60.8786 19.157 60.1473 19.8288 60.0472 20.6939L52.592 20.1901C52.592 20.1901 52.592 20.1857 52.592 20.1835C52.592 19.4123 51.9696 18.7869 51.202 18.7869C50.9985 18.7869 50.8071 18.8333 50.6334 18.9118L42.3666 3.16209C42.8626 2.86488 43.1947 2.3224 43.1947 1.70147C43.1947 0.761243 42.4359 0 41.5011 0C40.5663 0 39.8075 0.762348 39.8075 1.70147C39.8075 2.32351 40.1407 2.86599 40.6356 3.16209L32.3688 18.9118C32.1951 18.8333 32.0026 18.7869 31.8002 18.7869C31.0326 18.7869 30.4102 19.4123 30.4102 20.1835C30.4102 20.1857 30.4102 20.1879 30.4102 20.1901L22.955 20.6939C22.8549 19.8288 22.1236 19.157 21.2361 19.157C20.9798 19.157 20.7368 19.2145 20.518 19.3151L17.5948 13.6427C18.1018 13.3444 18.4438 12.7931 18.4438 12.16C18.4438 11.2109 17.6773 10.4409 16.7326 10.4409C16.1135 10.4409 15.5735 10.7723 15.2733 11.2662L3.22115 4.71441C3.32673 4.49233 3.38722 4.24595 3.38722 3.983C3.38722 3.04277 2.62839 2.28152 1.69361 2.28152C0.758824 2.28152 0 3.04387 0 3.983C0 4.92212 0.758824 5.68447 1.69361 5.68447C1.77939 5.68447 1.86187 5.67563 1.94435 5.66348L6.67875 29.1107C6.38842 29.3593 6.20036 29.7239 6.20036 30.1371C6.20036 30.8851 6.80303 31.4905 7.54755 31.4905C8.02484 31.4905 8.44165 31.2397 8.68029 30.8641L21.2834 35.5464C21.2537 35.6857 21.2361 35.8315 21.2361 35.9795C21.2361 37.1065 22.1456 38.0202 23.2673 38.0202C24.2318 38.0202 25.0368 37.344 25.2447 36.4392L39.2422 38.4776C39.2334 38.5572 39.229 38.6367 39.229 38.7185C39.229 39.978 40.2452 41 41.5 41C42.7548 41 43.771 39.9791 43.771 38.7185C43.771 38.6367 43.7666 38.5572 43.7578 38.4776L57.7553 36.437C57.9621 37.3429 58.7682 38.0191 59.7327 38.0191C60.8544 38.0191 61.7639 37.1054 61.7639 35.9784C61.7639 35.8304 61.7474 35.6857 61.7177 35.5464L74.8234 30.6751C75.0444 31.1204 75.4964 31.4287 76.0254 31.4287C76.7699 31.4287 77.3726 30.8232 77.3726 30.0752C77.3726 29.4554 76.9547 28.9372 76.3883 28.7781L81.0556 5.66237C81.1381 5.67453 81.2206 5.68337 81.3064 5.68337C82.2423 5.68337 83 4.92102 83 3.98189C83 3.04277 82.2412 2.28042 81.3064 2.28042L81.3086 2.28152ZM79.8635 4.86798C79.9933 5.08122 80.166 5.26352 80.3727 5.40163L74.3879 15.5751C74.2724 15.521 74.1448 15.4878 74.0096 15.4878C73.7005 15.4878 73.4278 15.6447 73.2662 15.8845L67.8103 12.9025C67.9181 12.6771 67.9797 12.4263 67.9797 12.16C67.9797 11.8937 67.9181 11.6452 67.8114 11.4209L79.8635 4.86909V4.86798ZM60.574 34.1234L61.6847 22.6318C61.7111 22.6329 61.7386 22.6362 61.765 22.6362C62.7218 22.6362 63.4971 21.8573 63.4971 20.8961C63.4971 20.716 63.4696 20.5436 63.4201 20.3801L73.2024 16.7794C73.2827 16.9451 73.4102 17.0821 73.5697 17.1727L60.8764 34.2935C60.7807 34.2284 60.6796 34.172 60.574 34.1245V34.1234ZM65.5602 13.7223C65.7758 13.8206 66.0155 13.8781 66.2685 13.8781C66.8854 13.8781 67.4254 13.5488 67.7267 13.0561L73.1826 16.0381C73.1364 16.1463 73.1111 16.2657 73.1111 16.3905C73.1111 16.4689 73.1243 16.5441 73.143 16.6159L63.3607 20.2166C63.2145 19.8708 62.9582 19.5824 62.6382 19.3946L65.5613 13.7223H65.5602ZM60.0351 20.8652C60.0351 20.8751 60.034 20.885 60.034 20.8961C60.034 21.77 60.6763 22.4926 61.5121 22.6152L60.4057 34.056C60.1957 33.982 59.9702 33.9389 59.7349 33.9389C59.5732 33.9389 59.416 33.9599 59.2642 33.9963L51.9718 21.3436C52.2995 21.1237 52.5228 20.7668 52.5744 20.3558L60.0351 20.8652ZM33.1903 20.1824C33.1903 19.9857 33.1485 19.7979 33.0748 19.6277L40.3057 15.9751C40.5333 16.3651 40.9391 16.6314 41.4142 16.6612V36.4425C41.0953 36.4546 40.7951 36.532 40.5234 36.6635L32.5217 21.3712C32.922 21.1259 33.1914 20.6873 33.1914 20.1824H33.1903ZM41.588 36.4425V16.6612C42.062 16.6314 42.4689 16.3651 42.6965 15.9762L49.9241 19.6332C49.8526 19.8023 49.8119 19.9868 49.8119 20.1824C49.8119 20.6873 50.0813 21.1259 50.4816 21.3712L42.4788 36.6635C42.2071 36.5331 41.9058 36.4557 41.588 36.4436V36.4425ZM50.4794 18.9935C50.2837 19.114 50.122 19.2808 50.0065 19.4797L42.779 15.8226C42.8505 15.6536 42.8912 15.4691 42.8912 15.2735C42.8912 14.5321 42.3149 13.9322 41.588 13.8858V3.39632C41.8101 3.38527 42.0213 3.33113 42.2126 3.24164L50.4805 18.9935H50.4794ZM40.7896 3.24275C40.9809 3.33224 41.1921 3.38638 41.4142 3.39742V13.8869C40.6884 13.9333 40.111 14.5332 40.111 15.2746C40.111 15.4691 40.1517 15.6547 40.2232 15.8237L32.9957 19.4808C32.8791 19.2819 32.7185 19.1151 32.5228 18.9946L40.7907 3.24275H40.7896ZM30.4289 20.3624C30.4816 20.7712 30.7049 21.1259 31.0304 21.3447L23.738 33.9974C23.5873 33.961 23.4301 33.94 23.2673 33.94C23.032 33.94 22.8065 33.982 22.5965 34.0571L21.4901 22.6163C22.3259 22.4926 22.9693 21.7711 22.9693 20.8972C22.9693 20.8872 22.9682 20.8773 22.9682 20.8674L30.43 20.3624H30.4289ZM9.79983 16.7794L19.581 20.3801C19.5304 20.5436 19.504 20.716 19.504 20.8961C19.504 21.8573 20.2793 22.6362 21.2361 22.6362C21.2636 22.6362 21.29 22.6329 21.3164 22.6318L22.4271 34.1234C22.3259 34.1698 22.2292 34.2217 22.1379 34.2836L9.58758 17.06C9.67556 16.9816 9.74704 16.8866 9.79873 16.7794H9.79983ZM20.3651 19.3946C20.044 19.5824 19.7888 19.8708 19.6426 20.2166L9.86032 16.6159C9.87901 16.543 9.89221 16.4689 9.89221 16.3905C9.89221 16.2657 9.86692 16.1463 9.82073 16.0381L15.2766 13.0561C15.5779 13.5488 16.1168 13.8781 16.7348 13.8781C16.9878 13.8781 17.2264 13.8217 17.4431 13.7223L20.3662 19.3946H20.3651ZM15.1908 11.4198C15.0841 11.6441 15.0225 11.8937 15.0225 12.1589C15.0225 12.4241 15.0841 12.6771 15.1919 12.9014L9.73605 15.8834C9.57439 15.6447 9.30165 15.4867 8.99262 15.4867C8.85625 15.4867 8.72868 15.5199 8.61321 15.574L2.62839 5.40052C2.83514 5.26242 3.0089 5.08012 3.13757 4.86688L15.1897 11.4187L15.1908 11.4198ZM2.11481 5.62923C2.24238 5.59608 2.36445 5.54968 2.47883 5.49002L8.46364 15.6635C8.24039 15.8281 8.09413 16.0911 8.09413 16.3905C8.09413 16.8137 8.38556 17.1661 8.77597 17.2633L7.07136 28.8742C6.98668 28.9063 6.9075 28.9461 6.83162 28.9936L2.11371 5.62812L2.11481 5.62923ZM8.76497 30.7094C8.84635 30.5348 8.89474 30.3426 8.89474 30.1371C8.89474 29.3891 8.29208 28.7836 7.54755 28.7836C7.44748 28.7836 7.3507 28.7958 7.25612 28.8168L8.94863 17.2876C8.96403 17.2876 8.97722 17.2921 8.99262 17.2921C9.15978 17.2921 9.31485 17.2434 9.44901 17.1628L21.9993 34.3863C21.6859 34.6383 21.4472 34.9819 21.3263 35.3774L8.76387 30.7083L8.76497 30.7094ZM25.2755 36.269C25.2886 36.174 25.2985 36.0779 25.2985 35.9795C25.2985 35.078 24.7168 34.3156 23.9107 34.0449L31.1833 21.4264C31.3702 21.5203 31.5781 21.5778 31.8002 21.5778C32.0026 21.5778 32.194 21.5325 32.3677 21.454L40.3684 36.7441C39.802 37.0723 39.3907 37.6379 39.2686 38.3064L25.2755 36.269ZM43.7325 38.3064C43.6104 37.6379 43.1991 37.0723 42.6327 36.7441L50.6334 21.454C50.8071 21.5325 50.9985 21.5778 51.2009 21.5778C51.4241 21.5778 51.632 21.5203 51.8178 21.4264L59.0904 34.0449C58.2843 34.3156 57.7026 35.078 57.7026 35.9795C57.7026 36.0779 57.7114 36.1729 57.7245 36.2668L43.7314 38.3053L43.7325 38.3064ZM61.6759 35.3796C61.5561 34.9896 61.324 34.6493 61.0161 34.3974L73.7336 17.2446C73.8215 17.2733 73.9128 17.2921 74.0096 17.2921C74.025 17.2921 74.0382 17.2887 74.0536 17.2876L75.7373 28.7571C75.1335 28.8908 74.6804 29.43 74.6804 30.0774C74.6804 30.2321 74.7112 30.3779 74.7585 30.516L61.6759 35.3807V35.3796ZM76.2201 28.7439C76.1563 28.735 76.0936 28.724 76.0276 28.724C75.9869 28.724 75.9495 28.7328 75.9099 28.7361L74.2262 17.2633C74.6177 17.1661 74.9081 16.8137 74.9081 16.3905C74.9081 16.0911 74.7618 15.8281 74.5386 15.6635L80.5234 5.49002C80.6377 5.55078 80.7598 5.59719 80.8874 5.62923L76.2201 28.7439Z" fill="black"/>
</svg>
