<svg width="18" height="19" viewBox="0 0 18 19" fill="none" xmlns="http://www.w3.org/2000/svg">
<path d="M16.5625 11.875V7.125C16.5625 5.02743 16.1351 3.64908 15.3203 2.78906C14.5115 1.93551 13.2223 1.49024 11.25 1.49024H6.75C4.77771 1.49024 3.48851 1.93551 2.67969 2.78906C1.86494 3.64908 1.43755 5.02743 1.4375 7.125V11.875C1.4375 13.9727 1.86493 15.3509 2.67969 16.2109C3.48849 17.0647 4.77749 17.5107 6.75 17.5107H11.25C13.2225 17.5107 14.5115 17.0647 15.3203 16.2109C16.1351 15.3509 16.5625 13.9727 16.5625 11.875ZM16.4375 11.875C16.4375 13.7302 16.1303 15.1354 15.2529 16.0615C14.3684 16.9952 13.0194 17.3232 11.25 17.3232H6.75C4.98058 17.3232 3.63165 16.9952 2.74707 16.0615C1.86972 15.1354 1.5625 13.7302 1.5625 11.875V7.125C1.56254 5.26997 1.86977 3.86452 2.74707 2.93848C3.63165 2.00507 4.9808 1.67774 6.75 1.67774H11.25C13.0192 1.67774 14.3683 2.00507 15.2529 2.93848C16.1302 3.86452 16.4375 5.26997 16.4375 7.125V11.875Z" fill="#838383" stroke="#838383"/>
<path d="M10.6132 9.5C10.6131 9.46415 10.5999 9.4386 10.5868 9.42481L7.93933 6.62988C7.92782 6.61783 7.91612 6.61429 7.90515 6.61426C7.89419 6.61426 7.88249 6.61788 7.87097 6.62988C7.85356 6.64826 7.84265 6.67286 7.84265 6.70606C7.84271 6.73911 7.85361 6.76292 7.87097 6.78125L10.121 9.15625L10.4462 9.5L10.121 9.84375L7.87097 12.2188C7.85786 12.2326 7.84461 12.2589 7.84461 12.2949C7.84461 12.331 7.85786 12.3573 7.87097 12.3711C7.88245 12.383 7.89423 12.3867 7.90515 12.3867C7.91608 12.3867 7.92786 12.383 7.93933 12.3711L10.5868 9.57617C10.5999 9.56233 10.6132 9.53604 10.6132 9.5Z" fill="#838383" stroke="#838383"/>
</svg>
