<svg width="18" height="22" viewBox="0 0 18 22" fill="none" xmlns="http://www.w3.org/2000/svg">
<path d="M9 22C7.75805 21.994 6.75103 21.0143 6.73875 19.8H11.2388C11.2411 20.0941 11.1838 20.3857 11.07 20.658C10.7749 21.3202 10.172 21.8032 9.45 21.956H9.44438H9.4275H9.40725H9.39713C9.26642 21.9826 9.13348 21.9973 9 22ZM18 18.7H0V16.5L2.25 15.4V9.35C2.19073 7.79803 2.54918 6.25804 3.2895 4.884C4.02642 3.60966 5.28603 2.70477 6.75 2.398V0H11.25V2.398C14.1514 3.0734 15.75 5.5418 15.75 9.35V15.4L18 16.5V18.7Z" fill="#B0C3CC"/>
</svg>
