<svg width="16" height="17" viewBox="0 0 16 17" fill="none" xmlns="http://www.w3.org/2000/svg">
<path fill-rule="evenodd" clip-rule="evenodd" d="M11.4304 14.193C10.8085 14.193 10.2987 14.7476 10.2986 15.4332C10.2986 16.1108 10.8084 16.6666 11.4304 16.6666C12.0599 16.6666 12.5691 16.1108 12.5691 15.4332C12.569 14.7476 12.0599 14.193 11.4304 14.193ZM2.99976 14.193C2.37782 14.193 1.86805 14.7476 1.86792 15.4332C1.86792 16.1108 2.37774 16.6666 2.99976 16.6666C3.62915 16.6665 4.13843 16.1108 4.13843 15.4332C4.1383 14.7476 3.62908 14.1931 2.99976 14.193ZM14.8406 0.673457L13.0525 0.966426C12.798 1.01637 12.6112 1.24384 12.5886 1.52111L12.446 3.35021C12.4236 3.61216 12.2287 3.80806 11.989 3.80822H1.86792C1.41082 3.80822 1.11102 3.97961 0.811282 4.3551C0.511555 4.7306 0.458718 5.26944 0.526126 5.75842L1.23804 11.1139C1.37294 12.1434 2.18277 12.902 3.13452 12.902H11.3103C12.3069 12.902 13.1311 12.0703 13.2136 10.9928L13.9031 2.09338L15.0349 1.88049C15.3347 1.82334 15.5444 1.5049 15.4919 1.17834C15.4394 0.844657 15.1477 0.623845 14.8406 0.673457ZM6.40894 6.82775C6.72358 6.82775 6.97125 7.09735 6.97144 7.44006C6.97144 7.77479 6.72369 8.05236 6.40894 8.05236H4.33374C4.01899 8.05236 3.77124 7.77479 3.77124 7.44006C3.77143 7.09735 4.01911 6.82775 4.33374 6.82775H6.40894Z" fill="#A6ABC8"/>
</svg>
