<svg width="16" height="17" viewBox="0 0 16 17" fill="none" xmlns="http://www.w3.org/2000/svg">
<path fill-rule="evenodd" clip-rule="evenodd" d="M4.18533 0.868164H11.3647C13.9792 0.868164 15.4552 2.41136 15.4629 5.13216V12.6042C15.4629 15.3242 13.9792 16.8682 11.3647 16.8682H4.18533C1.57081 16.8682 0.0878906 15.3242 0.0878906 12.6042V5.13216C0.0878906 2.41136 1.57081 0.868164 4.18533 0.868164ZM7.81311 13.5562C8.14444 13.5562 8.42042 13.3002 8.45117 12.9562V4.80416C8.48192 4.55616 8.36738 4.30736 8.15982 4.17216C7.9438 4.03616 7.68242 4.03616 7.47563 4.17216C7.2673 4.30736 7.15276 4.55616 7.17505 4.80416V12.9562C7.21426 13.3002 7.49024 13.5562 7.81311 13.5562ZM11.3501 13.5562C11.673 13.5562 11.949 13.3002 11.9882 12.9562V10.3322C12.0105 10.0754 11.8959 9.83617 11.6876 9.70017C11.4808 9.56417 11.2194 9.56417 11.0042 9.70017C10.7959 9.83617 10.6813 10.0754 10.7121 10.3322V12.9562C10.7428 13.3002 11.0188 13.5562 11.3501 13.5562ZM4.86877 12.9562C4.83802 13.3002 4.56204 13.5562 4.23071 13.5562C3.90015 13.5562 3.6234 13.3002 3.59341 12.9562V7.42816C3.57035 7.17936 3.6849 6.93216 3.89323 6.79616C4.10002 6.66016 4.36216 6.66016 4.56973 6.79616C4.77652 6.93216 4.8926 7.17936 4.86877 7.42816V12.9562Z" fill="#C4C7DB"/>
</svg>
