<svg width="16" height="17" viewBox="0 0 16 17" fill="none" xmlns="http://www.w3.org/2000/svg">
<path fill-rule="evenodd" clip-rule="evenodd" d="M4.7525 0.865723H11.255C13.7975 0.865723 15.5 2.76972 15.5 5.60172V12.1385C15.5 14.9625 13.7975 16.8657 11.255 16.8657H4.7525C2.21 16.8657 0.5 14.9625 0.5 12.1385V5.60172C0.5 2.76972 2.21 0.865723 4.7525 0.865723ZM7.99256 6.51454C7.64006 6.51454 7.34756 6.20174 7.34756 5.81854C7.34756 5.42654 7.64006 5.11454 8.00756 5.11454C8.36756 5.11454 8.66006 5.42654 8.66006 5.81854C8.66006 6.20174 8.36756 6.51454 7.99256 6.51454ZM8.65244 11.8905C8.65244 12.2745 8.35994 12.5865 7.99244 12.5865C7.63244 12.5865 7.33994 12.2745 7.33994 11.8905V8.35451C7.33994 7.96971 7.63244 7.65051 7.99244 7.65051C8.35994 7.65051 8.65244 7.96971 8.65244 8.35451V11.8905Z" fill="#A6ABC8"/>
</svg>
