<svg width="14" height="14" viewBox="0 0 14 14" fill="none" xmlns="http://www.w3.org/2000/svg">
<g clip-path="url(#clip0_8219_5543)">
<rect width="14" height="14" fill="white" fill-opacity="0.01"/>
<path d="M6.99939 0.873047C7.05694 0.873047 7.11421 0.885171 7.16736 0.907227C7.22034 0.929243 7.26841 0.961359 7.30896 1.00195L9.62439 3.31836V2.18652C9.62444 2.07056 9.67032 1.95895 9.75232 1.87695C9.83432 1.79495 9.94593 1.74908 10.0619 1.74902H10.9369C11.0528 1.74902 11.1644 1.79503 11.2465 1.87695C11.3285 1.95895 11.3743 2.07056 11.3744 2.18652V5.06836L12.559 6.25195C12.5996 6.29266 12.6318 6.34138 12.6537 6.39453C12.6755 6.44756 12.687 6.50418 12.6869 6.56152V12.6865C12.6869 12.8026 12.641 12.914 12.559 12.9961C12.4769 13.0781 12.3654 13.124 12.2494 13.124H8.31189C8.19593 13.124 8.08432 13.0781 8.00232 12.9961C7.9204 12.9141 7.87439 12.8025 7.87439 12.6865V9.18652H6.12439V12.6865C6.12439 12.8026 6.07851 12.914 5.99646 12.9961C5.91441 13.0781 5.80292 13.124 5.68689 13.124H1.74939C1.63343 13.124 1.52182 13.0781 1.43982 12.9961C1.3579 12.9141 1.31189 12.8025 1.31189 12.6865V6.56152C1.31181 6.50423 1.32329 6.44752 1.34509 6.39453C1.36701 6.34138 1.39922 6.29266 1.43982 6.25195L6.68982 1.00195C6.73046 0.96121 6.77925 0.929282 6.8324 0.907227C6.88541 0.885273 6.94201 0.873074 6.99939 0.873047ZM2.18689 6.74316V12.249H5.24939V8.74902C5.24944 8.63306 5.29532 8.52145 5.37732 8.43945C5.45932 8.35745 5.57093 8.31158 5.68689 8.31152H8.31189C8.42783 8.31152 8.53943 8.35753 8.62146 8.43945C8.70346 8.52145 8.74934 8.63306 8.74939 8.74902V12.249H11.8119V6.74316L6.99939 1.93066L2.18689 6.74316Z" fill="#27709A"/>
</g>
<defs>
<clipPath id="clip0_8219_5543">
<rect width="14" height="14" fill="white"/>
</clipPath>
</defs>
</svg>
