<svg width="16" height="17" viewBox="0 0 16 17" fill="none" xmlns="http://www.w3.org/2000/svg">
<path fill-rule="evenodd" clip-rule="evenodd" d="M0.0371094 8.27862C0.0371094 4.0643 3.27355 0.266602 7.73999 0.266602C12.1065 0.266602 15.4121 3.99219 15.4121 8.25458C15.4121 13.198 11.5376 16.2666 7.72461 16.2666C6.46386 16.2666 5.06473 15.9141 3.94236 15.225C3.5503 14.9767 3.21973 14.7924 2.79692 14.9366L1.24405 15.4173C0.851985 15.5455 0.498359 15.225 0.613672 14.7924L1.12873 12.9977C1.2133 12.7493 1.19792 12.4849 1.07492 12.2766C0.413797 11.0107 0.0371094 9.62464 0.0371094 8.27862ZM6.72514 8.27862C6.72514 8.84748 7.16333 9.30416 7.70915 9.31217C8.25496 9.31217 8.69315 8.84748 8.69315 8.28663C8.69315 7.71778 8.25496 7.2611 7.70915 7.2611C7.17102 7.25309 6.72514 7.71778 6.72514 8.27862ZM10.2691 8.28664C10.2691 8.84748 10.7073 9.31217 11.2531 9.31217C11.7989 9.31217 12.2371 8.84748 12.2371 8.28664C12.2371 7.71778 11.7989 7.2611 11.2531 7.2611C10.7073 7.2611 10.2691 7.71778 10.2691 8.28664ZM4.16538 9.31218C3.62726 9.31218 3.18138 8.84748 3.18138 8.28664C3.18138 7.71779 3.61957 7.2611 4.16538 7.2611C4.7112 7.2611 5.14938 7.71779 5.14938 8.28664C5.14938 8.84748 4.7112 9.30416 4.16538 9.31218Z" fill="#A6ABC8"/>
</svg>
