<svg width="16" height="17" viewBox="0 0 16 17" fill="none" xmlns="http://www.w3.org/2000/svg">
<path d="M11.291 14.1924C10.6537 14.1926 10.132 14.7472 10.1318 15.4326C10.1318 16.1101 10.6536 16.6658 11.291 16.666C11.9363 16.666 12.459 16.1102 12.459 15.4326C12.4588 14.747 11.9361 14.1924 11.291 14.1924ZM2.64941 14.1924C2.0121 14.1926 1.49043 14.7471 1.49023 15.4326C1.49023 16.1101 2.01198 16.6658 2.64941 16.666C3.29466 16.666 3.81738 16.1102 3.81738 15.4326C3.81719 14.747 3.29454 14.1924 2.64941 14.1924ZM14.7861 0.672852L12.9541 0.96582C12.6932 1.01571 12.5017 1.24325 12.4785 1.52051L12.332 3.34961C12.309 3.61168 12.1091 3.80762 11.8633 3.80762H1.48926C1.02096 3.80774 0.713404 3.97908 0.40625 4.35449C0.0990887 4.72998 0.0461521 5.26887 0.115234 5.75781L0.844727 11.1133C0.982994 12.1428 1.81253 12.9014 2.78809 12.9014H11.168C12.1896 12.9014 13.0346 12.0698 13.1191 10.9922L13.8262 2.09277L14.9863 1.87988C15.2935 1.82263 15.5088 1.50422 15.4551 1.17773C15.4012 0.843969 15.101 0.623064 14.7861 0.672852ZM6.14453 6.82812C6.46715 6.82812 6.7207 7.09754 6.7207 7.44043C6.72047 7.77495 6.46701 8.05273 6.14453 8.05273H4.0166C3.69425 8.05259 3.44066 7.77486 3.44043 7.44043C3.44043 7.09763 3.6941 6.82827 4.0166 6.82812H6.14453Z" fill="#A6ABC8"/>
</svg>
