<svg width="15" height="17" viewBox="0 0 15 17" fill="none" xmlns="http://www.w3.org/2000/svg">
<path fill-rule="evenodd" clip-rule="evenodd" d="M4.47894 0.466797H10.9218C13.2965 0.466797 14.6188 1.8908 14.6188 4.3308V12.5948C14.6188 15.0748 13.2965 16.4668 10.9218 16.4668H4.47894C2.14194 16.4668 0.78125 15.0748 0.78125 12.5948V4.3308C0.78125 1.8908 2.14194 0.466797 4.47894 0.466797ZM4.68661 4.1948V4.1868H6.9844C7.31573 4.1868 7.5848 4.4668 7.5848 4.81C7.5848 5.1628 7.31573 5.4428 6.9844 5.4428H4.68661C4.35528 5.4428 4.08698 5.1628 4.08698 4.8188C4.08698 4.4748 4.35528 4.1948 4.68661 4.1948ZM4.68661 9.0588H10.7136C11.0442 9.0588 11.3132 8.7788 11.3132 8.4348C11.3132 8.0908 11.0442 7.81 10.7136 7.81H4.68661C4.35528 7.81 4.08698 8.0908 4.08698 8.4348C4.08698 8.7788 4.35528 9.0588 4.68661 9.0588ZM4.68652 12.7148H10.7135C11.0203 12.6828 11.2516 12.41 11.2516 12.0908C11.2516 11.7628 11.0203 11.4908 10.7135 11.4588H4.68652C4.4559 11.4348 4.23296 11.5468 4.10996 11.7548C3.98696 11.9548 3.98696 12.2188 4.10996 12.4268C4.23296 12.6268 4.4559 12.7468 4.68652 12.7148Z" fill="#A6ABC8"/>
</svg>
