<svg width="18" height="20" viewBox="0 0 18 20" fill="none" xmlns="http://www.w3.org/2000/svg">
<path d="M9.53809 1.59961C10.1052 1.59968 10.6188 1.93569 10.9023 2.43164C11.0402 2.67154 11.1323 2.96745 11.1094 3.2793C11.0941 3.51919 11.1626 3.75948 11.2852 3.9834C11.6761 4.6634 12.5423 4.91916 13.2168 4.53516C13.9756 4.07122 14.9342 4.35158 15.3711 5.14355L15.8838 6.08789C16.3283 6.87981 16.0837 7.89549 15.3174 8.35156C14.6659 8.75952 14.4354 9.66359 14.8262 10.3516C14.9488 10.5675 15.0872 10.7513 15.3018 10.8633C15.57 11.0153 15.7772 11.2561 15.9229 11.4961C16.2062 11.992 16.1831 12.5999 15.9072 13.1357L15.3711 14.0957C15.0875 14.6077 14.5579 14.9277 14.0137 14.9277C13.7455 14.9277 13.4463 14.8474 13.2012 14.6875C13.002 14.5517 12.7724 14.5039 12.5273 14.5039C11.7685 14.5039 11.1324 15.168 11.1094 15.96C11.1092 16.8798 10.4038 17.5996 9.52246 17.5996H8.48047C7.59148 17.5996 6.88592 16.8798 6.88574 15.96C6.87041 15.168 6.23439 14.5039 5.47559 14.5039C5.22267 14.5039 4.99238 14.5515 4.80078 14.6875C4.55555 14.8474 4.24881 14.9277 3.98828 14.9277C3.43657 14.9276 2.90755 14.6076 2.62402 14.0957L2.0957 13.1357C1.81219 12.6159 1.79673 11.992 2.08008 11.4961C2.20271 11.2561 2.43276 11.0153 2.69336 10.8633C2.90784 10.7513 3.04554 10.5674 3.17578 10.3516C3.55902 9.66356 3.32923 8.75956 2.67773 8.35156C1.91912 7.89549 1.67449 6.87981 2.11133 6.08789L2.62402 5.14355C3.06857 4.35155 4.01966 4.07116 4.78613 4.53516C5.45295 4.91912 6.31907 4.66338 6.70996 3.9834C6.8325 3.75948 6.90106 3.51919 6.88574 3.2793C6.87049 2.96742 6.95501 2.67156 7.10059 2.43164C7.38415 1.93569 7.89757 1.61567 8.45703 1.59961H9.53809ZM9.00879 7.34375C7.80558 7.34386 6.83213 8.35158 6.83203 9.60742C6.83203 10.8634 7.80552 11.8632 9.00879 11.8633C10.2121 11.8633 11.1631 10.8634 11.1631 9.60742C11.163 8.35151 10.2121 7.34375 9.00879 7.34375Z" fill="#A6ABC8"/>
</svg>
